<svg xmlns="http://www.w3.org/2000/svg" width="44" height="35" viewBox="0 0 44 35">
    <path fill="#191919" fill-rule="nonzero" d="M23.445 32.248c2.374-1.688 4.343-.206 6.147 1.47-2.329.653-4.795.949-6.147-1.47zm.57-1.453c.106-2.973 2.433-3.72 4.811-4.215-.882 2.32-2.123 4.54-4.81 4.215zm3.662.113c2.226-1.888 4.31-.584 6.244.928-2.267.854-4.7 1.365-6.244-.928zm2.064-1.41c-1.387-2.607.238-4.483 2.033-6.168.396 2.459.433 5.023-2.033 6.168zm1.802-.058c1.637-2.447 3.988-1.784 6.25-.88-1.952 1.465-4.155 2.646-6.25.88zm2.312-2.182c-2.118-2.016-1.156-4.328.026-6.516 1.132 2.2 1.96 4.617-.026 6.516zm1.127-.247c1.156-2.725 3.586-2.536 5.974-2.092-1.647 1.821-3.592 3.414-5.974 2.092zm1.93-2.634c-2.444-1.575-1.914-4.031-1.145-6.407 1.508 1.944 2.754 4.162 1.145 6.407zm.853-.368c.638-2.902 3.059-3.19 5.484-3.222-1.283 2.11-2.902 4.054-5.484 3.222zm.726-4.265c-2.602-1.274-2.348-3.777-1.848-6.229 1.714 1.754 3.198 3.81 1.848 6.23zm.434.83c.3-2.958 2.67-3.543 5.075-3.87-1.032 2.252-2.416 4.38-5.075 3.87zm.66-5.68c-2.813-.642-3.106-3.14-3.15-5.645 2.052 1.314 3.943 2.974 3.15 5.645zm.55 2.183c-.813-2.854 1.163-4.326 3.266-5.575-.124 2.489-.618 5.001-3.265 5.575zM38.48 9.289c-2.877.149-3.8-2.18-4.483-4.585 2.314.707 4.563 1.793 4.483 4.585zm1.852 3.203c-1.728-2.38-.376-4.473 1.172-6.403.727 2.377 1.114 4.909-1.172 6.403zm-3.11-7.436C34.344 4.884 33.67 2.466 33.24 0c2.227.96 4.35 2.289 3.98 5.056zm1.836 2.567c-2.161-1.967-1.248-4.3-.112-6.514 1.18 2.174 2.056 4.573.112 6.514zM20.554 32.29c-2.373-1.688-4.342-.206-6.146 1.47 2.328.653 4.795.95 6.146-1.47zm-.57-1.453c-.105-2.973-2.432-3.72-4.81-4.215.882 2.32 2.123 4.54 4.81 4.215zm-3.66.113c-2.227-1.889-4.31-.584-6.245.928 2.267.854 4.7 1.364 6.244-.928zm-2.065-1.41c1.387-2.608-.238-4.482-2.033-6.168-.396 2.459-.434 5.022 2.033 6.168zm-1.802-.058c-1.638-2.447-3.988-1.785-6.25-.88 1.952 1.465 4.155 2.646 6.25.88zM10.144 27.3c2.12-2.015 1.157-4.327-.025-6.515-1.133 2.2-1.96 4.618.025 6.515zm-1.126-.246c-1.157-2.725-3.586-2.536-5.975-2.092 1.647 1.82 3.592 3.414 5.975 2.092zm-1.93-2.634c2.444-1.575 1.914-4.03 1.145-6.408-1.509 1.946-2.754 4.163-1.145 6.408zm-.854-.369c-.637-2.901-3.058-3.19-5.484-3.22 1.284 2.11 2.902 4.054 5.484 3.22zm-.725-4.263c2.603-1.275 2.348-3.778 1.848-6.23-1.714 1.754-3.198 3.81-1.849 6.23h.001zm-.434.829c-.3-2.959-2.67-3.542-5.075-3.87C1.032 19 2.416 21.129 5.075 20.618v-.001zm-.66-5.68c2.813-.642 3.106-3.14 3.15-5.645-2.05 1.314-3.942 2.975-3.15 5.646zm-.551 2.183c.814-2.854-1.162-4.326-3.266-5.575.124 2.489.619 5.001 3.266 5.575zM5.52 9.332c2.877.148 3.8-2.18 4.483-4.585C7.69 5.454 5.44 6.54 5.52 9.332zM3.67 12.534c1.728-2.38.375-4.472-1.172-6.402-.727 2.377-1.114 4.91 1.171 6.402h.001zM6.779 5.1c2.877-.172 3.551-2.59 3.98-5.056-2.227.96-4.35 2.289-3.98 5.056zM4.944 7.666c2.16-1.967 1.247-4.3.111-6.514C3.876 3.326 3 5.725 4.944 7.666zm17.882 24.026c0 .477-.374.863-.835.863a.808.808 0 0 1-.587-.25.89.89 0 0 1-.247-.613c0-.476.373-.861.834-.861.461 0 .835.385.835.861zm-6.57-20.474V7.564c1.567-.476 2.966-1.058 4.198-1.744 1.232-.687 2.631-1.717 4.198-3.091v16.593h3.141v3.572H16.257v-3.572h4.276v-9.285l-4.276 1.18z"/>
</svg>
