<svg xmlns="http://www.w3.org/2000/svg" width="37" height="29" viewBox="0 0 37 29">
    <path fill="#FFF" fill-rule="nonzero" d="M19.716 27.117c1.995-1.419 3.651-.173 5.168 1.236-1.958.55-4.032.799-5.168-1.236zm.48-1.22c.088-2.501 2.044-3.13 4.044-3.546-.742 1.95-1.785 3.817-4.045 3.545zm3.077.093c1.872-1.587 3.624-.49 5.251.781-1.906.718-3.951 1.148-5.25-.78zm1.737-1.185c-1.167-2.192.2-3.77 1.71-5.186.332 2.067.363 4.223-1.71 5.186zm1.514-.049c1.377-2.058 3.354-1.5 5.257-.74-1.642 1.232-3.495 2.226-5.257.74zm1.945-1.835c-1.781-1.694-.972-3.639.022-5.479.952 1.85 1.647 3.883-.022 5.48zm.948-.207c.972-2.292 3.016-2.133 5.024-1.76-1.385 1.532-3.021 2.871-5.025 1.76zm1.623-2.215c-2.056-1.324-1.61-3.39-.964-5.388 1.269 1.635 2.317 3.5.964 5.388zm.717-.31c.536-2.44 2.572-2.683 4.612-2.709-1.08 1.775-2.44 3.41-4.612 2.71zm.61-3.586c-2.188-1.072-1.974-3.176-1.554-5.238 1.442 1.475 2.69 3.203 1.555 5.239zm.365.698c.252-2.488 2.245-2.98 4.268-3.255-.868 1.895-2.032 3.684-4.268 3.255zm.556-4.776c-2.366-.54-2.612-2.641-2.649-4.748 1.725 1.105 3.315 2.502 2.649 4.748zm.463 1.835c-.685-2.4.977-3.638 2.746-4.688-.105 2.093-.52 4.206-2.746 4.688zM32.357 7.81c-2.419.125-3.195-1.833-3.77-3.855 1.946.595 3.838 1.507 3.77 3.855zm1.558 2.693c-1.454-2.001-.316-3.76.985-5.384.611 2 .937 4.128-.985 5.384zm-2.616-6.253C28.881 4.107 28.313 2.074 27.953 0c1.872.807 3.657 1.925 3.346 4.251zm1.544 2.16c-1.817-1.655-1.049-3.617-.094-5.479.992 1.829 1.73 3.846.094 5.478zM17.284 27.153c-1.995-1.42-3.651-.174-5.169 1.235 1.959.55 4.033.8 5.169-1.235zm-.48-1.222c-.088-2.5-2.044-3.129-4.044-3.544.741 1.95 1.785 3.817 4.044 3.544zm-3.077.095c-1.872-1.588-3.625-.491-5.251.78 1.906.719 3.951 1.148 5.25-.78zM11.99 24.84c1.167-2.193-.2-3.77-1.71-5.186-.332 2.067-.364 4.223 1.71 5.186zm-1.514-.048c-1.378-2.058-3.355-1.501-5.257-.74 1.642 1.231 3.495 2.225 5.257.74zM8.53 22.957c1.782-1.695.973-3.64-.02-5.479-.954 1.85-1.648 3.883.02 5.48zm-.947-.207c-.972-2.291-3.016-2.132-5.024-1.76 1.385 1.532 3.02 2.872 5.025 1.76zM5.96 20.535c2.056-1.324 1.61-3.39.964-5.388-1.27 1.636-2.317 3.5-.964 5.388zm-.718-.31c-.535-2.44-2.57-2.683-4.611-2.708 1.08 1.774 2.44 3.409 4.611 2.708zm-.61-3.585c2.19-1.073 1.975-3.177 1.555-5.238-1.442 1.474-2.69 3.203-1.555 5.238zm-.364.697C4.016 14.849 2.023 14.358 0 14.082c.868 1.895 2.031 3.685 4.267 3.256v-.001zm-.556-4.776c2.366-.54 2.613-2.64 2.649-4.748-1.724 1.105-3.314 2.502-2.649 4.748zm-.463 1.835c.684-2.4-.977-3.638-2.746-4.688.104 2.093.52 4.206 2.746 4.688zm1.394-6.549c2.419.125 3.195-1.833 3.77-3.855-1.947.594-3.838 1.507-3.77 3.855zM3.085 10.54C4.54 8.54 3.401 6.78 2.1 5.156c-.612 1.999-.937 4.13.985 5.384zm2.616-6.252C8.119 4.143 8.687 2.11 9.047.036 7.175.843 5.39 1.96 5.701 4.288zM4.157 6.447c1.817-1.655 1.05-3.617.094-5.478-.992 1.828-1.729 3.845-.094 5.478zM19.194 26.65c0 .401-.314.725-.701.725a.68.68 0 0 1-.494-.21.749.749 0 0 1-.208-.515c0-.4.314-.724.702-.724.387 0 .701.324.701.724zM13.67 9.433V6.361c1.317-.4 2.494-.89 3.53-1.467 1.036-.578 2.213-1.444 3.53-2.6v13.954h2.642v3.003H13.67v-3.003h3.597V8.44l-3.597.993z"/>
</svg>
