<svg xmlns="http://www.w3.org/2000/svg" width="69" height="27" viewBox="0 0 69 27">
    <g fill="none" fill-rule="nonzero">
        <path fill="#000" d="M36.336 21.592h-1.312l-.006-14.195h-7.67v1.39c0 4.332-.157 9.346-1.664 12.805h-1.018v5.116h2.294v-3.047h7.08v3.047h2.295v-5.116zm10.189-.92c-.656.453-1.803 1.1-3.245 1.1-2.032 0-3.081-1.94-3.081-5.626h6.883v-1.39c0-5.528-1.803-7.565-4.557-7.565-3.506 0-4.982 3.815-4.982 9.052 0 5.01 2.098 7.694 5.507 7.694 1.639 0 3.016-.517 4.065-1.325l-.59-1.94zM20.345 7.377v6.954h-3.802V7.377h-2.557V23.67h2.557v-7.35h3.802v7.35h2.525V7.377h-2.525zm36.216 16.287h2.786l-4.687-8.632 4.098-7.662h-2.59l-3.966 7.533V7.37h-2.557v16.294h2.557V15.55l4.36 8.114v.001zM69 22.644l-.59-1.875c-.59.517-1.541 1.003-2.786 1.003-2.065 0-3.05-2.328-3.05-6.401 0-4.106 1.313-6.143 3.148-6.143 1.048 0 2.032.55 2.72 1.132l.361-2.393c-.721-.452-1.573-.84-3.049-.84-3.867 0-5.867 3.265-5.867 8.373 0 5.56 2.13 8.373 5.671 8.373 1.508 0 2.557-.485 3.441-1.228H69zm-36.47-.994h-4.393c1.376-3.46 1.54-8.47 1.54-11.897v-.29h2.852V21.65zm11.907-7.543h-4.229c.164-2.91.721-4.817 2.294-4.817 1.476 0 1.935 2.037 1.935 4.817z"/>
        <path fill="#F00" d="M8.741 15.144v8.767h2.448V.6H7.533C3.942.6.922 3.127.922 8.052c0 3.513 1.335 5.418 3.338 6.468L0 23.91h2.829l3.878-8.766H8.74zm-.007-2.045H7.43c-2.13 0-3.879-1.215-3.879-4.991 0-3.907 1.907-5.302 3.879-5.302h1.303V13.1z"/>
    </g>
</svg>
