<svg xmlns="http://www.w3.org/2000/svg" width="95" height="27" viewBox="0 0 95 27">
    <path fill="#E95A43" fill-rule="nonzero" d="M.892 23.281v-4.056H0v5.46h.787l2.415-3.9v3.9h.84v-5.46h-.735L.892 23.281zm7.348-1.04H6.35v-1.56h-.839v4.004h.84V22.97h1.89v1.716h.84v-4.004h-.84v1.56zm1.837-.78H11.6v3.224h.84v-3.224h1.47v-.78h-3.832v.78zm12.387-.832a1.465 1.465 0 0 0-.682.156 1.49 1.49 0 0 0-.578.416l-.21.208v-.624h-.84v5.512h.84v-2.184l.21.208c.176.147.37.269.578.364.204.064.416.1.63.104a1.776 1.776 0 0 0 1.364-.624c.373-.415.578-.952.578-1.508a2.07 2.07 0 0 0-.578-1.508 1.873 1.873 0 0 0-1.312-.52zm.735 3.068c-.244.261-.586.412-.945.416a1.144 1.144 0 0 1-.945-.416 1.365 1.365 0 0 1-.367-.988c-.024-.366.11-.725.367-.988.25-.246.593-.378.945-.364.364-.019.715.136.945.416.258.263.392.622.367.988 0 .347-.131.68-.367.936zm5.091-1.456H26.4v-1.56h-.84v4.004h.84V22.97h1.89v1.716h.84v-4.004h-.84v1.56zm7.086-.78h1.522v3.224h.84v-3.224h1.417v-.78h-3.78v.78zm4.933.884h1.785v.78h-1.785v-.78zm5.564-1.716a1.506 1.506 0 0 0-1.522 1.04l-.263.624v-.676c.013-.3.066-.597.158-.884a1.63 1.63 0 0 1 .472-.572c.233-.165.504-.272.788-.312.4-.05.804-.067 1.207-.052a4.01 4.01 0 0 0 .787-.052v-.728c-.21 0-.525.052-.892.052a9.778 9.778 0 0 0-1.522.104c-.318.067-.62.19-.893.364-.277.209-.48.5-.577.832-.186.481-.275.993-.262 1.508-.003.456.05.91.157 1.352.124.431.38.813.735 1.092.367.306.832.472 1.312.468a2.163 2.163 0 0 0 1.575-.624c.416-.412.644-.976.63-1.56a1.945 1.945 0 0 0-.578-1.456 1.83 1.83 0 0 0-1.312-.52zm.682 3.068a1.406 1.406 0 0 1-1.89 0 1.288 1.288 0 0 1-.367-.988c.01-.344.14-.675.368-.936.244-.26.585-.411.944-.416.366-.029.722.128.945.416.25.248.382.587.368.936.015.365-.118.72-.368.988zm4.042-.156v-.052l-1.207-2.808h-.84l1.574 3.848-.84 1.716h.893l2.624-5.564h-.892l-1.312 2.86zm6.613-2.86h-.945l-.892 1.248-.945-1.248h-.997l1.417 1.924-1.575 2.08h.998l1.102-1.456 1.05 1.456h.997l-1.627-2.132 1.417-1.872zm1.102 4.004h.84v-3.224h1.47v-.78h-2.31v4.004zm6.508-3.328l-.21-.208a1.49 1.49 0 0 0-.577-.416 1.63 1.63 0 0 0-.682-.156c-.514 0-1.006.207-1.365.572a2.255 2.255 0 0 0-.577 1.508c-.01.558.196 1.098.577 1.508.339.399.839.628 1.365.624.214-.005.426-.04.63-.104a1.49 1.49 0 0 0 .577-.416l.21-.208v.624h.84v-4.004h-.84v.676h.052zm-.314 2.34c-.245.261-.586.412-.945.416a1.144 1.144 0 0 1-.945-.416 1.513 1.513 0 0 1 0-1.976c.244-.26.586-.411.945-.416.352-.014.695.118.945.364.258.263.391.622.367.988.033.383-.1.762-.367 1.04zm3.831-3.016l-1.785 4.004h.84l1.207-2.86 1.208 2.86h.84l-1.785-4.004h-.525zm2.782.78h1.522v3.224h.892v-3.224h1.417v-.78H71.12v.78zm12.387-.832a1.465 1.465 0 0 0-.683.156 1.49 1.49 0 0 0-.577.416l-.21.208v-.624h-.84v5.512h.84v-2.184l.21.208c.185.16.399.283.63.364.205.06.416.095.63.104a1.776 1.776 0 0 0 1.364-.624c.373-.415.578-.952.578-1.508a2.07 2.07 0 0 0-.578-1.508 2.005 2.005 0 0 0-1.364-.52zm.734 3.068c-.244.261-.585.412-.944.416a1.144 1.144 0 0 1-.945-.416 1.365 1.365 0 0 1-.368-.988c-.024-.366.11-.725.368-.988.25-.246.592-.378.945-.364.364-.019.715.136.944.416.259.263.392.622.368.988.024.35-.11.694-.368.936zm3.202-.312v-2.704h-.84v4.004h.42l2.362-2.6v2.6h.84v-4.004h-.368l-2.414 2.704zm4.881-2.6a1.102 1.102 0 0 0-.577.416 1.271 1.271 0 0 0-.263.78.905.905 0 0 0 .21.624.761.761 0 0 0 .525.364l.158.052v.052l-1.155 1.664h.997l1.05-1.56h.42v1.56h.84v-4.004h-.998a4.015 4.015 0 0 0-1.207.052zm1.312 1.82h-.42c-.682 0-.84-.364-.84-.624s.106-.624.735-.624h.525v1.248zM77.89 20.577a2.11 2.11 0 0 0-1.523.624 2.07 2.07 0 0 0-.63 1.456c0 .566.227 1.108.63 1.508.404.4.952.624 1.523.624.43.008.853-.12 1.207-.364.323-.198.579-.488.734-.832h-.84c-.23.348-.63.547-1.049.52-.325 0-.64-.11-.892-.312a1.505 1.505 0 0 1-.473-.78l-.052-.156h3.464v-.104a2.528 2.528 0 0 0-.577-1.612 2.11 2.11 0 0 0-1.522-.572zm-1.313 1.82l.053-.156a1.258 1.258 0 0 1 1.312-.988 1.158 1.158 0 0 1 1.26.988l.052.156h-2.677zm-59.729-1.82a2.142 2.142 0 0 0-2.152 2.132c0 1.178.964 2.132 2.152 2.132.431.008.854-.12 1.207-.364.323-.198.58-.488.735-.832h-.84c-.23.348-.63.547-1.05.52-.324 0-.639-.11-.892-.312a1.505 1.505 0 0 1-.472-.78l-.053-.156h3.465v-.104a2.528 2.528 0 0 0-.578-1.612 1.951 1.951 0 0 0-1.522-.624zm-1.312 1.82l.052-.156a1.258 1.258 0 0 1 1.313-.988 1.158 1.158 0 0 1 1.26.988l.052.156h-2.677zm16.9-1.82a2.11 2.11 0 0 0-1.522.624 2.07 2.07 0 0 0-.63 1.456c0 1.178.964 2.132 2.152 2.132.432.008.854-.12 1.208-.364.323-.198.579-.488.734-.832h-.84c-.23.348-.63.547-1.049.52-.325 0-.64-.11-.892-.312a1.505 1.505 0 0 1-.473-.78l-.052-.156h3.464v-.104a2.528 2.528 0 0 0-.577-1.612 2.359 2.359 0 0 0-1.523-.572zm-1.312 1.82l.053-.156a1.258 1.258 0 0 1 1.312-.988 1.158 1.158 0 0 1 1.26.988l.052.156h-2.677zM12.597.817h-.525L7.348 13.141 2.624.817H0v15.08h2.1V4.925l4.198 10.972h2.1l4.199-10.972v10.972h2.1V.817h-2.1zm9.447 15.08c3.189 0 5.774-2.56 5.774-5.72 0-3.159-2.585-5.72-5.774-5.72-3.188 0-5.773 2.561-5.773 5.72 0 3.16 2.585 5.72 5.773 5.72zm0-9.36c2.03 0 3.674 1.63 3.674 3.64 0 2.01-1.645 3.64-3.674 3.64s-3.674-1.63-3.674-3.64c0-2.01 1.645-3.64 3.674-3.64zm67.183 9.36c3.188 0 5.773-2.56 5.773-5.72 0-3.159-2.585-5.72-5.773-5.72-3.19 0-5.774 2.561-5.774 5.72 0 3.16 2.585 5.72 5.774 5.72zm0-9.36c2.029 0 3.674 1.63 3.674 3.64 0 2.01-1.645 3.64-3.674 3.64-2.03 0-3.675-1.63-3.675-3.64 0-2.01 1.645-3.64 3.675-3.64zm-38.315 9.36h8.922v-2.08h-1.312l-3.412-9.36h-2.099l-3.412 9.36h-1.312v2.08h2.625zm3.149-8.58l2.362 6.5h-4.777l2.415-6.5zm24.668-2.86h-2.1l-4.198 11.44h2.1l3.149-8.58 3.149 8.58h2.1l-4.2-11.44zm-46.188-2.08h5.25v1.04h-5.25v-1.04zm0-2.08h5.25v1.04h-5.25V.297zm5.774 12.428a3.66 3.66 0 0 1-2.624 1.092h-.525a3.67 3.67 0 0 1-3.517-2.6h9.185c.064-.343.099-.69.105-1.04 0-3.159-2.585-5.72-5.773-5.72-3.189 0-5.774 2.561-5.774 5.72 0 3.16 2.585 5.72 5.774 5.72h.525a5.716 5.716 0 0 0 4.723-2.444l-2.1-.728zm-3.15-6.188a3.67 3.67 0 0 1 3.517 2.6H31.65a3.67 3.67 0 0 1 3.517-2.6zm34.117 6.188a3.66 3.66 0 0 1-2.625 1.092h-.524a3.67 3.67 0 0 1-3.517-2.6h9.185c.064-.343.099-.69.105-1.04 0-3.159-2.585-5.72-5.773-5.72-3.189 0-5.774 2.561-5.774 5.72 0 3.16 2.585 5.72 5.774 5.72h.524a5.716 5.716 0 0 0 4.724-2.444l-2.1-.728zm-3.15-6.188a3.67 3.67 0 0 1 3.517 2.6h-7.033a3.67 3.67 0 0 1 3.517-2.6z"/>
</svg>
