<svg xmlns="http://www.w3.org/2000/svg" width="43" height="43" viewBox="0 0 43 43">
    <path fill="#EA2D2D" fill-rule="evenodd" d="M43 21.5C43 33.374 33.374 43 21.5 43S0 33.374 0 21.5 9.626 0 21.5 0 43 9.626 43 21.5zm-31.447 4.69l-8.504-8.217 2.398-2.481.975.945c-.34-1.156.24-2.714 1.133-3.638 1.174-1.215 2.513-1.609 3.765-1.226-.314-1.594.104-2.78 1.211-3.926 1.557-1.608 3.984-2.239 6.294-.007l5.509 5.322-2.431 2.515-4.929-4.761c-.804-.779-1.85-.961-2.743-.037-.893.924-.67 2.098.082 2.827l4.911 4.745-2.48 2.568-4.929-4.762c-.804-.778-1.85-.961-2.76-.02-.876.905-.654 2.083.116 2.823l4.894 4.73-2.512 2.6zm16.145-13.25l2.853-.42c.658-.093.88-.408.882-.822.004-.706-.6-1.319-1.77-1.327-1.29-.008-2 .864-2.081 1.765l-3.211-.678c.158-1.728 1.778-4.008 5.336-3.985 3.92.026 5.343 2.227 5.327 4.712l-.038 5.918a11.94 11.94 0 0 0 .131 1.876l-3.334-.021c-.024-.098-.119-.537-.112-1.365-.64 1.018-1.813 1.693-3.42 1.683-2.655-.018-4.178-1.78-4.166-3.706.013-2.143 1.604-3.35 3.603-3.63zm-3.63 24.51a23.504 23.504 0 0 1-.085-2.169l.084-15.466-3.653-.02-.036 6.479c-.29-.465-1.187-1.249-3.257-1.26-3.434-.02-5.885 2.67-5.905 6.275-.02 3.728 2.547 6.373 5.956 6.392 1.462.008 2.683-.594 3.248-1.419.002.391.033.781.09 1.168l3.558.02zm5.095-6.956c-.97-.815-.9-1.805-.404-2.472l-2.765-1.59c-.788 1.086-1.439 3.754 1.47 6.2 2.479 2.084 4.99 1.556 6.323-.028 1.145-1.36 1.185-3.301-.406-5.307l-1.027-1.278c-.347-.42-.476-.91-.147-1.301.408-.485 1.14-.41 1.681.045.858.72.812 1.572.367 2.25l2.71 1.542c.815-1.159 1.294-3.62-1.39-5.878-2.07-1.737-4.72-1.612-6.147.084-1.097 1.306-1.255 3.084.364 5.173l.856 1.135c.564.73.553 1.199.27 1.532-.345.41-1.028.505-1.755-.107z"/>
</svg>
